<svg width="34" height="50" viewBox="0 0 34 50" fill="none" xmlns="http://www.w3.org/2000/svg">
<g clip-path="url(#clip0_3_41)">
<path d="M27.9473 2.8464H5.84144V0.00203038H27.9473V2.8464ZM33.8079 5.86257H30.9826V5.70985L30.9635 5.55714L30.9444 5.40442L30.9253 5.2517L30.8871 5.09898L30.849 4.96535L30.7917 4.83173L30.7344 4.6981L30.6771 4.56447L30.6008 4.43084L30.5244 4.29721L30.4481 4.18268L30.3717 4.06814L30.2763 3.9536L30.1808 3.83906L30.0854 3.72452L29.9708 3.62907L29.8563 3.53363L29.7418 3.43818L29.6272 3.36182L29.4936 3.28546L29.36 3.2091L29.2263 3.13274L29.0927 3.07547L28.9591 3.0182L28.8254 2.96093L28.6727 2.92276L28.52 2.88458L28.3673 2.86549L28.2146 2.8464L28.0619 2.82731H27.9091V-0.0170593H28.2146L28.52 0.00203038L28.8064 0.0402098L29.0927 0.0974789L29.379 0.173838L29.6654 0.250197L29.9326 0.345645L30.1999 0.441094L30.4672 0.555632L30.7153 0.68926L30.9635 0.822888L31.1926 0.975605L31.4216 1.14741L31.6507 1.31922L31.8607 1.51012L32.0707 1.70101L32.2616 1.911L32.4525 2.12099L32.6243 2.35006L32.7961 2.57914L32.9488 2.80822L33.0825 3.05638L33.2161 3.30455L33.3306 3.57181L33.4261 3.83906L33.5215 4.10632L33.5979 4.39266L33.6742 4.67901L33.7315 4.96535L33.7697 5.2517L33.7888 5.55714V5.86257H33.8079ZM30.9826 44.1374V5.86257H33.8079V44.1374H30.9826ZM27.9664 49.998V47.1536H28.1191L28.2718 47.1345L28.4246 47.1154L28.5773 47.0963L28.73 47.0582L28.8827 47.02L29.0163 46.9627L29.15 46.9054L29.2836 46.8482L29.4172 46.7718L29.5509 46.6955L29.6845 46.6191L29.799 46.5427L29.9136 46.4473L30.0281 46.3518L30.1235 46.2564L30.219 46.1419L30.3144 46.0273L30.4099 45.9128L30.4862 45.7982L30.5626 45.6837L30.639 45.5501L30.7153 45.4164L30.7726 45.2828L30.8299 45.1492L30.8871 45.0156L30.9253 44.8819L30.9635 44.7292L30.9826 44.5765L31.0017 44.4238L31.0208 44.2711V44.1183H33.846V44.4238L33.827 44.7292L33.7888 45.0156L33.7315 45.3019L33.6551 45.5882L33.5788 45.8746L33.4833 46.1419L33.3879 46.4091L33.2733 46.6764L33.1397 46.9245L33.0061 47.1727L32.8534 47.4018L32.6816 47.6309L32.5098 47.8599L32.3189 48.0699L32.128 48.2799L31.918 48.4708L31.708 48.6617L31.4789 48.8335L31.2498 49.0053L31.0208 49.158L30.7726 49.2917L30.5244 49.4253L30.2572 49.5398L29.9899 49.6353L29.7227 49.7307L29.4363 49.8071L29.15 49.8834L28.8636 49.9407L28.5773 49.9789L28.2718 49.998H27.9664ZM5.86053 47.1536H27.9664V49.998H5.86053V47.1536ZM-1.23754e-05 44.1374H2.82526V44.2902L2.84435 44.4429L2.86344 44.5956L2.88253 44.7483L2.92071 44.901L2.95889 45.0346L3.01616 45.1683L3.07343 45.3019L3.1307 45.4355L3.20706 45.5692L3.28342 45.7028L3.35978 45.8173L3.43613 45.9319L3.53158 46.0464L3.62703 46.1609L3.72248 46.2564L3.81793 46.3518L3.93247 46.4473L4.04701 46.5427L4.16154 46.6191L4.29517 46.6955L4.4288 46.7718L4.56243 46.8482L4.69606 46.9054L4.82968 46.9627L4.96331 47.02L5.11603 47.0582L5.26875 47.0963L5.42146 47.1154L5.57418 47.1345L5.7269 47.1536H5.87962V49.998H5.57418L5.26875 49.9789L4.9824 49.9407L4.69606 49.8834L4.40971 49.8071L4.12336 49.7307L3.85611 49.6353L3.58885 49.5398L3.3216 49.4253L3.07343 49.2917L2.82526 49.158L2.59619 49.0053L2.36711 48.8335L2.13803 48.6617L1.92805 48.4708L1.71806 48.2799L1.52716 48.0699L1.33627 47.8599L1.16446 47.6309L0.992652 47.4018L0.839935 47.1727L0.706307 46.9245L0.572679 46.6764L0.458141 46.4091L0.362692 46.1419L0.267244 45.8746L0.190885 45.5882L0.114526 45.3019L0.0572567 45.0156L0.0190773 44.7292L-1.23754e-05 44.4238V44.1183V44.1374ZM2.82526 5.86257V44.1374H-1.23754e-05V5.86257H2.82526ZM5.84144 0.00203038V2.8464H5.68872L5.536 2.86549L5.38329 2.88458L5.23057 2.90367L5.07785 2.94185L4.92513 2.98002L4.7915 3.03729L4.65788 3.09456L4.52425 3.15183L4.39062 3.22819L4.25699 3.30455L4.12336 3.38091L4.00883 3.45727L3.89429 3.55272L3.77975 3.64816L3.66521 3.74361L3.56976 3.83906L3.47431 3.9536L3.37887 4.06814L3.30251 4.18268L3.22615 4.29721L3.14979 4.43084L3.07343 4.56447L3.01616 4.6981L2.95889 4.83173L2.90162 4.96535L2.86344 5.09898L2.82526 5.2517L2.80617 5.40442L2.78708 5.55714L2.768 5.70985V5.86257H-0.0572815V5.55714L-0.0381918 5.2517L-1.23754e-05 4.96535L0.0572567 4.67901L0.133616 4.39266L0.209974 4.10632L0.305423 3.83906L0.400871 3.57181L0.51541 3.30455L0.649038 3.05638L0.782666 2.80822L0.935383 2.57914L1.10719 2.35006L1.279 2.12099L1.4699 1.911L1.66079 1.70101L1.87078 1.51012L2.08077 1.31922L2.30984 1.14741L2.53892 0.975605L2.768 0.822888L3.01616 0.68926L3.26433 0.555632L3.53158 0.441094L3.79884 0.345645L4.0661 0.250197L4.35244 0.173838L4.63879 0.0974789L4.92513 0.0402098L5.21148 0.00203038L5.51691 -0.0170593H5.82235L5.84144 0.00203038Z" fill="#00CF60"/>
<path d="M21.4186 5.49986V8.26787H12.3892V5.49986H21.4186ZM27.6228 2.1019V2.40733L27.6037 2.71277L27.5655 3.0182L27.5082 3.32364L27.4319 3.62907L27.3555 3.91542L27.2601 4.20176L27.1455 4.48811L27.031 4.75537L26.8974 5.02262L26.7447 5.27079L26.5919 5.51895L26.4201 5.76712L26.2292 5.9962L26.0383 6.22527L25.8284 6.43526L25.6184 6.64525L25.3893 6.83614L25.1602 7.02704L24.912 7.19885L24.6639 7.35157L24.3966 7.50428L24.1294 7.63791L23.8621 7.77154L23.5758 7.88608L23.2894 7.98153L22.984 8.05788L22.6786 8.13424L22.3731 8.19151L22.0677 8.22969L21.7432 8.24878H21.4186V5.48077H21.5904L21.7622 5.46168L21.9341 5.4426L22.1059 5.40442L22.2586 5.36624L22.4113 5.32806L22.564 5.27079L22.7167 5.21352L22.8694 5.13716L23.0222 5.0608L23.1558 4.98444L23.2894 4.88899L23.423 4.79354L23.5567 4.6981L23.6712 4.60265L23.7858 4.48811L23.9003 4.37357L23.9957 4.25903L24.0912 4.12541L24.1866 3.99178L24.2821 3.85815L24.3584 3.70543L24.4348 3.55271L24.5112 3.4L24.5684 3.24728L24.6257 3.09456L24.6639 2.94184L24.7021 2.77004L24.7402 2.59823L24.7593 2.42642L24.7784 2.25461V2.08281H27.6037L27.6228 2.1019ZM24.7975 1.43376L26.2101 0.0402079L27.6228 1.43376V2.1019H24.7975V1.43376ZM26.2101 0.0402079H27.6228V1.43376L26.2101 0.0402079ZM7.61677 2.80822L6.20413 1.41467L7.61677 0.0211182H26.2101V2.78913H7.61677V2.80822ZM6.20413 1.41467V0.0211182H7.61677L6.20413 1.41467ZM9.02941 2.08281H6.20413V1.41467H9.02941V2.08281ZM12.4083 8.24878H12.0838L11.7592 8.22969L11.4538 8.19151L11.1484 8.13424L10.8429 8.05788L10.5375 7.98153L10.2512 7.88608L9.9648 7.77154L9.69755 7.63791L9.43029 7.50428L9.16304 7.35157L8.91487 7.19885L8.6667 7.02704L8.43763 6.83614L8.20855 6.64525L7.99856 6.43526L7.78858 6.22527L7.59768 5.9962L7.40678 5.76712L7.23498 5.51895L7.08226 5.27079L6.92954 5.02262L6.79591 4.75537L6.68137 4.48811L6.56684 4.20176L6.47139 3.91542L6.39503 3.62907L6.31867 3.32364L6.2614 3.0182L6.22322 2.71277L6.20413 2.40733V2.1019H9.02941V2.2737L9.0485 2.44551L9.06759 2.61732L9.10577 2.78913L9.14395 2.96093L9.18213 3.11365L9.2394 3.26637L9.29666 3.41909L9.37302 3.5718L9.44938 3.72452L9.52574 3.87724L9.62119 4.01087L9.71664 4.1445L9.81209 4.27812L9.90754 4.39266L10.0221 4.5072L10.1366 4.62174L10.2512 4.71719L10.3848 4.81263L10.5184 4.90808L10.652 5.00353L10.7857 5.07989L10.9384 5.15625L11.0911 5.23261L11.2438 5.28988L11.3965 5.34715L11.5493 5.38533L11.702 5.42351L11.8738 5.46168L12.0456 5.48077L12.2174 5.49986H12.3892V8.26787L12.4083 8.24878Z" fill="#00CF60"/>
<path d="M21.1132 40.9686H18.2879V40.8922V40.8158L18.2688 40.7395L18.2497 40.6631L18.2307 40.6058L18.2116 40.5295L18.1925 40.4531L18.1734 40.3959L18.1352 40.3386L18.097 40.2813L18.0588 40.2241L18.0207 40.1668L17.9825 40.1095L17.9443 40.0522L17.9061 39.995L17.868 39.9377L17.8298 39.8995L17.7725 39.8613L17.7152 39.8232L17.658 39.785L17.6007 39.7468L17.5434 39.7086L17.4862 39.6705L17.4289 39.6514L17.3716 39.6323L17.3143 39.6132L17.2571 39.5941L17.1807 39.575L17.1044 39.5559H17.0471H16.9707H16.8944V36.7115H17.1044L17.3143 36.7306L17.5243 36.7497L17.7343 36.7879L17.9252 36.8261L18.1352 36.8834L18.3261 36.9597L18.517 37.0361L18.7079 37.1124L18.8988 37.2079L19.0706 37.3033L19.2424 37.4179L19.4142 37.5324L19.5669 37.666L19.7197 37.7997L19.8724 37.9333L20.006 38.086L20.1396 38.2387L20.2733 38.3914L20.3878 38.5633L20.5023 38.7351L20.5978 38.926L20.6932 39.1169L20.7696 39.3077L20.8459 39.4986L20.9032 39.6895L20.9605 39.8804L21.0178 40.0904L21.0559 40.3004L21.075 40.5104L21.0941 40.7204V40.9304L21.1132 40.9686ZM16.9135 45.2256V42.3812H16.9898H17.0662H17.1235L17.1998 42.3621L17.2762 42.343L17.3334 42.3239L17.3907 42.3048L17.448 42.2857L17.5052 42.2667L17.5625 42.2285L17.6198 42.1903L17.6771 42.1521L17.7343 42.1139L17.7916 42.0758L17.8489 42.0376L17.887 41.9994L17.9252 41.9421L17.9634 41.8849L18.0016 41.8276L18.0398 41.7703L18.0779 41.7131L18.1161 41.6558L18.1543 41.5985L18.1925 41.5412L18.2116 41.484L18.2307 41.4076L18.2497 41.3313L18.2688 41.274L18.2879 41.1976L18.307 41.1213V41.0449V40.9686H21.1323V41.1785L21.1132 41.3885L21.0941 41.5985L21.0559 41.8085L20.9987 42.0185L20.9414 42.2094L20.8841 42.4003L20.8078 42.5912L20.7314 42.7821L20.636 42.973L20.5405 43.1639L20.426 43.3357L20.3114 43.5075L20.1778 43.6602L20.0442 43.8129L19.9106 43.9656L19.7578 44.0993L19.6051 44.2329L19.4524 44.3665L19.2806 44.4811L19.1088 44.5956L18.937 44.691L18.7461 44.7865L18.5552 44.8629L18.3643 44.9392L18.1734 45.0156L17.9634 45.0728L17.7725 45.111L17.5625 45.1492L17.3525 45.1683L17.1425 45.1874H16.9326L16.9135 45.2256ZM12.7137 40.9686H15.539V41.0449V41.1213L15.5581 41.1976L15.5772 41.274L15.5963 41.3313L15.6154 41.4076L15.6345 41.484L15.6535 41.5412L15.6917 41.5985L15.7299 41.6558L15.7681 41.7131L15.8063 41.7703L15.8444 41.8276L15.8826 41.8849L15.9208 41.9421L15.959 41.9994L15.9972 42.0376L16.0544 42.0758L16.1117 42.1139L16.169 42.1521L16.2262 42.1903L16.2835 42.2285L16.3408 42.2667L16.398 42.2857L16.4553 42.3048L16.5126 42.3239L16.5699 42.343L16.6462 42.3621L16.7226 42.3812H16.7798H16.8562H16.9326V45.2256H16.7226L16.5126 45.2065L16.3026 45.1874L16.0926 45.1492L15.9017 45.111L15.6917 45.0538L15.5008 44.9774L15.3099 44.901L15.119 44.8247L14.9281 44.7292L14.7563 44.6338L14.5845 44.5192L14.4127 44.4047L14.26 44.2711L14.1073 44.1374L13.9546 44.0038L13.8209 43.8511L13.6873 43.6984L13.5537 43.5457L13.4391 43.3739L13.3246 43.202L13.2292 43.0112L13.1337 42.8203L13.0573 42.6294L12.981 42.4385L12.9237 42.2476L12.8664 42.0567L12.8092 41.8467L12.771 41.6367L12.7519 41.4267L12.7328 41.2167V41.0067L12.7137 40.9686ZM16.9135 36.7115V39.5559H16.8371H16.7607H16.7035L16.6271 39.575L16.5508 39.5941L16.4935 39.6132L16.4362 39.6323L16.379 39.6514L16.3217 39.6705L16.2644 39.7086L16.2071 39.7468L16.1499 39.785L16.0926 39.8232L16.0353 39.8613L15.9781 39.8995L15.9399 39.9377L15.9017 39.995L15.8635 40.0522L15.8254 40.1095L15.7872 40.1668L15.749 40.2241L15.7108 40.2813L15.6726 40.3386L15.6345 40.3959L15.6154 40.4531L15.5963 40.5295L15.5772 40.6058L15.5581 40.6631L15.539 40.7395L15.5199 40.8158V40.8922V40.9686H12.6946V40.7586L12.7137 40.5486L12.7328 40.3386L12.771 40.1286L12.8283 39.9186L12.8855 39.7277L12.9428 39.5368L13.0192 39.3459L13.0955 39.155L13.191 38.9641L13.2864 38.7732L13.401 38.6014L13.5155 38.4296L13.6491 38.2769L13.7828 38.1242L13.9164 37.9715L14.0691 37.8378L14.2218 37.7042L14.3745 37.5706L14.5463 37.456L14.7181 37.3415L14.89 37.2461L15.0809 37.1506L15.2718 37.0743L15.4626 36.9979L15.6535 36.9215L15.8635 36.8643L16.0544 36.8261L16.2644 36.7879L16.4744 36.7688L16.6844 36.7497H16.8944L16.9135 36.7115Z" fill="#00CF60"/>
<path d="M10.3466 30.641C10.3466 31.4237 9.75482 32.0536 9.0485 32.0536C8.32309 32.0536 7.7504 31.4237 7.7504 30.641H10.3657H10.3466ZM10.3466 21.1152V30.641H7.73131V21.1152H10.3466ZM7.73131 21.1152C7.73131 20.3326 8.32309 19.7026 9.02941 19.7026C9.75482 19.7026 10.3275 20.3326 10.3275 21.1152H7.71222H7.73131Z" fill="#1C4670"/>
<path d="M14.3936 30.641C14.3936 31.3855 13.7637 31.9773 12.981 31.9773C12.1983 31.9773 11.5684 31.3664 11.5684 30.641H14.4127H14.3936ZM14.3936 18.9772V30.641H11.5493V18.9772H14.3936ZM11.5493 18.9772C11.5493 18.2327 12.1792 17.6409 12.9619 17.6409C13.7446 17.6409 14.3745 18.2518 14.3745 18.9772H11.5302H11.5493Z" fill="#1C4670"/>
<path d="M18.3261 30.641C18.3261 31.3855 17.6961 31.9773 16.9135 31.9773C16.1308 31.9773 15.5008 31.3664 15.5008 30.641H18.3452H18.3261ZM18.3261 15.6556V30.641H15.4817V15.6556H18.3261ZM15.4817 15.6556C15.4817 14.9111 16.1117 14.3193 16.8944 14.3193C17.6771 14.3193 18.307 14.9302 18.307 15.6556H15.4626H15.4817Z" fill="#1C4670"/>
<path d="M22.2586 30.641C22.2586 31.3855 21.6286 31.9773 20.846 31.9773C20.0633 31.9773 19.4333 31.3664 19.4333 30.641H22.2586ZM22.2586 22.2988V30.641H19.4333V22.2988H22.2586ZM19.4333 22.2988C19.4333 21.5543 20.0633 20.9625 20.846 20.9625C21.6286 20.9625 22.2586 21.5734 22.2586 22.2988H19.4333Z" fill="#1C4670"/>
<path d="M26.1529 30.641C26.1529 31.4237 25.542 32.0536 24.7784 32.0536C24.0148 32.0536 23.404 31.4237 23.404 30.641H26.172H26.1529ZM26.1529 18.0418V30.641H23.3849V18.0418H26.1529ZM23.3849 18.0418C23.3849 17.2591 23.9957 16.6292 24.7593 16.6292C25.5229 16.6292 26.1338 17.2591 26.1338 18.0418H23.3658H23.3849Z" fill="#1C4670"/>
</g>
<defs>
<clipPath id="clip0_3_41">
<rect width="33.8079" height="50" fill="white"/>
</clipPath>
</defs>
</svg>
