<svg width="50" height="50" viewBox="0 0 50 50" fill="none" xmlns="http://www.w3.org/2000/svg">
<path d="M6.13374 39.1522V20.2837C6.13374 9.90654 14.6251 1.41522 25.0022 1.41522C35.3794 1.41522 43.8707 9.90654 43.8707 20.2837V39.1522" stroke="#00CF60" stroke-width="2.82877" stroke-miterlimit="22.9256" stroke-linecap="round" stroke-linejoin="round"/>
<path d="M44.6534 25.0034H43.0835C40.9118 25.0034 39.1513 26.7639 39.1513 28.9356V39.9397C39.1513 42.1114 40.9118 43.8719 43.0835 43.8719H44.6534C46.8251 43.8719 48.5856 42.1114 48.5856 39.9397V28.9356C48.5856 26.7639 46.8251 25.0034 44.6534 25.0034Z" fill="white" stroke="#00CF60" stroke-width="2.82877" stroke-miterlimit="22.9256" stroke-linecap="round" stroke-linejoin="round"/>
<path d="M24.9972 43.8716C24.9972 46.4646 22.8756 48.5862 20.2826 48.5862H10.8484C8.25532 48.5862 6.13374 46.4646 6.13374 43.8716V39.152" stroke="#1C4670" stroke-width="2.82877" stroke-miterlimit="22.9256" stroke-linecap="round" stroke-linejoin="round"/>
<path d="M6.9163 25.0034H5.34644C3.17475 25.0034 1.41425 26.7639 1.41425 28.9356V39.9397C1.41425 42.1114 3.17475 43.8719 5.34644 43.8719H6.9163C9.08799 43.8719 10.8485 42.1114 10.8485 39.9397V28.9356C10.8485 26.7639 9.08799 25.0034 6.9163 25.0034Z" fill="white" stroke="#00CF60" stroke-width="2.82877" stroke-miterlimit="22.9256" stroke-linecap="round" stroke-linejoin="round"/>
</svg>
