<svg width="76" height="50" viewBox="0 0 76 50" fill="none" xmlns="http://www.w3.org/2000/svg">
<path d="M53.0811 34.8137L50.6122 37.2826C49.995 36.6654 50.0567 35.6161 50.7357 34.9372C51.4146 34.2582 52.4639 34.1965 53.0811 34.8137ZM65.3638 47.0965L62.8949 49.5653L50.6122 37.2826L53.0811 34.8137L65.3638 47.0965ZM62.8949 49.5653L65.3638 47.0965C65.9811 47.7137 65.9193 48.763 65.2404 49.4419C64.5614 50.1208 63.5122 50.1826 62.8949 49.5653Z" fill="#00CF60"/>
<path d="M41.9524 32.159C43.5002 32.5737 45.0911 31.6552 45.5058 30.1075C45.9205 28.5598 45.002 26.9689 43.4543 26.5542C41.9065 26.1395 40.3156 27.058 39.9009 28.6057C39.4862 30.1534 40.4047 31.7443 41.9524 32.159Z" stroke="#1C4670" stroke-width="2.31523" stroke-miterlimit="22.9256" stroke-linecap="round" stroke-linejoin="round"/>
<path d="M34.0707 17.5005L40.8293 26.3268" stroke="#1C4670" stroke-width="2.80749" stroke-miterlimit="22.9256" stroke-linecap="round" stroke-linejoin="round"/>
<path d="M69.9515 10.6836C71.4992 11.0983 73.0901 10.1798 73.5048 8.63208C73.9196 7.08435 73.0011 5.49347 71.4533 5.07876C69.9055 4.66404 68.3147 5.58254 67.8999 7.13027C67.4852 8.678 68.4037 10.2689 69.9515 10.6836Z" stroke="#1C4670" stroke-width="2.31523" stroke-miterlimit="22.9256" stroke-linecap="round" stroke-linejoin="round"/>
<path d="M45.6436 27.3762L67.8018 10.5878" stroke="#1C4670" stroke-width="2.80749" stroke-miterlimit="22.9256" stroke-linecap="round" stroke-linejoin="round"/>
<path d="M5.05787 32.7126C3.51011 32.2979 1.91922 33.2164 1.5045 34.7642C1.08978 36.3119 2.00829 37.9028 3.55604 38.3175C5.10379 38.7322 6.69469 37.8137 7.10941 36.266C7.52412 34.7182 6.60562 33.1274 5.05787 32.7126Z" stroke="#1C4670" stroke-width="2.31523" stroke-miterlimit="22.9256" stroke-linecap="round" stroke-linejoin="round"/>
<path d="M29.318 16.2046L7.15974 32.993" stroke="#1C4670" stroke-width="2.80749" stroke-miterlimit="22.9256" stroke-linecap="round" stroke-linejoin="round"/>
<path d="M31.4443 17.2603C32.9921 17.675 34.583 16.7565 34.9977 15.2088C35.4124 13.661 34.4939 12.0702 32.9461 11.6554C31.3984 11.2407 29.8075 12.1592 29.3928 13.707C28.9781 15.2547 29.8966 16.8456 31.4443 17.2603Z" stroke="#1C4670" stroke-width="2.31523" stroke-miterlimit="22.9256" stroke-linecap="round" stroke-linejoin="round"/>
<path d="M37.4963 41.9736C48.6942 41.9736 57.772 32.8959 57.772 21.6979C57.772 10.4999 48.6942 1.42218 37.4963 1.42218C26.2983 1.42218 17.2205 10.4999 17.2205 21.6979C17.2205 32.8959 26.2983 41.9736 37.4963 41.9736Z" stroke="#00CF60" stroke-width="2.80749" stroke-miterlimit="22.9256" stroke-linecap="round" stroke-linejoin="round"/>
</svg>
