<svg width="54" height="54" viewBox="0 0 54 54" fill="none" xmlns="http://www.w3.org/2000/svg">
<path d="M7.13666 28.3549L3.43732 24.6555L5.93497 22.1579C5.78181 21.8398 5.65222 21.5217 5.5344 21.18H2V12.8271H5.5344C5.65222 12.4972 5.79359 12.1673 5.93497 11.8492L3.43732 9.35155L9.35155 3.43732L11.8492 5.93497C12.1673 5.78181 12.4854 5.65222 12.8271 5.5344V2H21.18V5.5344C21.5099 5.65222 21.8398 5.79359 22.1579 5.93497L24.6555 3.43732L28.3549 7.13666" stroke="#00CF60" stroke-width="3.00424" stroke-miterlimit="22.9256" stroke-linecap="round" stroke-linejoin="round"/>
<path fill-rule="evenodd" clip-rule="evenodd" d="M42.1979 13.9109L50.0796 21.7926L46.7455 25.1268C46.9458 25.5509 47.1225 25.9868 47.2875 26.4227H52V37.5679H47.2875C47.1225 38.0155 46.9458 38.4397 46.7455 38.8638L50.0796 42.1979L42.1979 50.0796L38.8638 46.7455C38.4397 46.9458 38.0038 47.1225 37.5679 47.2875V52H26.4227V47.2875C25.975 47.1225 25.5509 46.9458 25.1268 46.7455L21.7926 50.0796L13.9109 42.1979L17.245 38.8638C17.0448 38.4397 16.868 38.0155 16.7031 37.5679H11.9906V26.4227H16.7031C16.868 25.975 17.0448 25.5509 17.245 25.1268L13.9109 21.7926L21.7926 13.9109L25.1268 17.245C25.5509 17.0448 25.975 16.868 26.4227 16.7031V11.9906H37.5679V16.7031C38.0155 16.868 38.4397 17.0448 38.8638 17.245L42.1979 13.9109Z" fill="white" stroke="#00CF60" stroke-width="3.00424" stroke-miterlimit="22.9256" stroke-linecap="round" stroke-linejoin="round"/>
<path d="M31.9953 38.369C35.5154 38.369 38.369 35.5154 38.369 31.9953C38.369 28.4752 35.5154 25.6216 31.9953 25.6216C28.4752 25.6216 25.6216 28.4752 25.6216 31.9953C25.6216 35.5154 28.4752 38.369 31.9953 38.369Z" stroke="#1C4670" stroke-width="3.00424" stroke-miterlimit="22.9256" stroke-linecap="round" stroke-linejoin="round"/>
</svg>
